<?xml version="1.0" encoding="utf-8"?>
<!-- Generator: Adobe Illustrator 17.0.0, SVG Export Plug-In . SVG Version: 6.00 Build 0)  -->
<!DOCTYPE svg PUBLIC "-//W3C//DTD SVG 1.1//EN" "http://www.w3.org/Graphics/SVG/1.1/DTD/svg11.dtd">
<svg version="1.1" xmlns="http://www.w3.org/2000/svg" xmlns:xlink="http://www.w3.org/1999/xlink" x="0px" y="0px" width="216px"
	 height="115.2px" viewBox="0 0 216 115.2" enable-background="new 0 0 216 115.2" xml:space="preserve">
<g id="Layer_1">
	<g>
		<g>
			<path fill="#5089A1" d="M212.248,27.735L112.664,0.172c-1.273-0.352-3.145-0.554-5.061-0.554c-1.916,0-3.767,0.202-5.038,0.554
				L3.343,27.735C1.411,28.27,0,30.524,0,32.466v49.503c0,1.942,1.398,4.197,3.328,4.732l99.43,27.562
				c1.272,0.353,3.004,0.556,4.91,0.556c1.905,0,3.682-0.203,4.956-0.556l99.656-27.562c1.863-0.517,3.72-2.771,3.72-4.732V32.466
				C216,30.507,214.115,28.252,212.248,27.735z"/>
		</g>
	</g>
</g>
<g id="Layer_2">
	<g>
		<path fill="#FFFFFF" d="M20.913,66.723h2.919v-18.28h-2.919V45.89h9.985c1.958,0,3.417,0.1,4.976,0.563
			c4.479,1.394,7.397,5.441,7.397,11.147c0,5.672-2.819,9.622-7.397,11.081c-1.526,0.498-3.085,0.631-4.943,0.631H20.913V66.723z
			 M30.731,66.59c1.526,0,2.787-0.133,3.981-0.598c3.151-1.094,5.109-4.113,5.109-8.393c0-4.312-1.958-7.331-5.076-8.459
			c-1.294-0.465-2.488-0.531-4.014-0.531h-3.583V66.59H30.731z"/>
		<path fill="#FFFFFF" d="M46.526,66.723h2.919v-18.28h-2.919V45.89h16.952v5.44h-2.887v-2.721h-7.829v7.531h8.293v2.72h-8.293v7.73
			h8.393v-2.82h2.887v5.541H46.526V66.723z"/>
		<path fill="#FFFFFF" d="M68.422,48.443h-2.289V45.89h8.36v2.554h-2.587l5.242,15.426c0.265,0.83,0.397,1.824,0.397,1.824h0.1
			c0,0,0.133-0.994,0.398-1.824l5.241-15.426h-2.587V45.89h8.359v2.554h-2.322l-7.397,20.868h-3.516L68.422,48.443z"/>
		<path fill="#FFFFFF" d="M95.827,66.723h2.953V48.609h-5.507v3.649h-2.886V45.89h20.101v6.369h-2.883v-3.649h-5.507v18.114h2.952
			v2.588h-9.223V66.723z"/>
		<path fill="#FFFFFF" d="M113.211,66.723h2.92v-18.28h-2.92V45.89h10.152c1.658,0,3.018,0.066,4.312,0.497
			c2.455,0.83,4.08,2.886,4.08,6.071c0,3.384-1.857,5.805-4.843,6.568v0.066c0,0,0.597,0.334,0.995,1.096l3.316,5.772
			c0.366,0.631,0.797,0.764,1.625,0.764h0.697v2.588h-1.99c-1.99,0-2.455-0.365-3.251-1.76l-3.616-6.402
			c-0.597-0.994-1.028-1.293-2.454-1.293h-2.788v6.867h2.888v2.588h-9.124V66.723z M124.159,57.135c2.554,0,4.246-1.659,4.246-4.412
			c0-1.825-0.73-3.086-2.19-3.683c-0.763-0.299-1.758-0.432-2.886-0.432h-3.883v8.526H124.159z"/>
		<path fill="#FFFFFF" d="M148.146,45.491c6.768,0,12.043,5.208,12.043,11.943c0,6.9-5.275,12.275-12.043,12.275
			c-6.802,0-12.041-5.375-12.041-12.275C136.105,50.7,141.345,45.491,148.146,45.491z M148.146,66.756
			c4.745,0,8.592-4.047,8.592-9.322c0-5.109-3.847-9.024-8.592-9.024c-4.778,0-8.626,3.915-8.626,9.024
			C139.52,62.709,143.368,66.756,148.146,66.756z"/>
		<path fill="#FFFFFF" d="M163.311,66.723h2.917v-18.28h-2.917V45.89h9.187v2.554h-2.952v18.28h2.952v2.588h-9.187V66.723z"/>
		<path fill="#FFFFFF" d="M180.629,66.723h2.952V48.609h-5.506v3.649h-2.887V45.89h20.103v6.369h-2.887v-3.649h-5.506v18.114h2.951
			v2.588h-9.221V66.723z"/>
	</g>
</g>
</svg>
